<svg version="1.0" xmlns="http://www.w3.org/2000/svg"
 width="250px" height="250px" viewBox="0 0 1561.000000 1600.000000"
 preserveAspectRatio="xMidYMid meet">

<g transform="translate(0.000000,1600.000000) scale(0.100000,-0.100000)"
fill="#000000" stroke="none">
<path d="M6804 14400 c-167 -38 -291 -108 -422 -238 -52 -51 -108 -100 -125
-109 -160 -81 -468 -294 -662 -457 -99 -84 -326 -306 -321 -315 5 -8 244 -434
416 -741 308 -551 585 -1025 753 -1290 444 -701 909 -1347 1288 -1789 63 -73
118 -141 123 -150 25 -47 -342 340 -545 574 -230 265 -372 442 -611 760 -550
733 -1144 1628 -1493 2250 -43 77 -85 151 -93 164 l-14 23 -33 -47 c-18 -25
-40 -56 -47 -67 -14 -21 -14 -21 -57 8 -53 35 -146 45 -202 21 -19 -8 -101
-71 -181 -141 -164 -141 -188 -176 -188 -266 0 -62 40 -143 188 -385 295 -482
727 -1079 1087 -1501 45 -53 138 -68 212 -35 51 23 86 81 103 166 23 118 62
275 68 275 4 0 39 -46 77 -102 250 -363 771 -1026 1139 -1448 392 -449 915
-980 1331 -1351 198 -175 442 -377 515 -424 137 -89 410 -212 679 -306 708
-248 1618 -489 2316 -614 197 -35 185 -37 224 43 78 157 107 300 98 487 -3 61
-12 142 -21 180 l-17 70 -87 29 c-48 15 -173 61 -279 102 -683 263 -1182 536
-1427 782 -210 211 -232 379 -60 463 112 55 286 52 486 -11 34 -11 64 -18 66
-16 1 2 -23 57 -54 122 -31 66 -94 200 -139 299 -46 99 -110 236 -142 305 -33
69 -72 153 -87 187 l-28 62 -37 -19 c-20 -10 -54 -21 -76 -24 -49 -7 -440 -68
-620 -97 -124 -20 -132 -23 -164 -56 -74 -76 -171 -93 -261 -45 -76 40 -113
95 -118 177 -6 99 28 166 108 213 60 35 146 37 208 5 23 -13 54 -23 67 -23 13
0 109 14 212 30 103 17 260 42 348 56 88 14 172 27 187 30 l26 5 -24 54 c-15
34 -26 84 -30 135 l-7 80 -96 -1 c-53 0 -232 -6 -398 -12 -286 -11 -303 -13
-325 -34 -50 -46 -104 -66 -172 -61 -115 7 -196 86 -204 198 -10 140 81 240
218 240 63 0 123 -22 150 -55 10 -12 23 -15 49 -11 20 3 199 11 399 17 l362
12 -1 36 c0 20 -6 95 -12 166 l-12 130 -407 3 -408 2 -45 -34 c-140 -107 -341
-19 -353 154 -5 71 10 120 51 167 42 48 99 73 167 73 58 0 125 -24 149 -53 12
-15 53 -17 412 -17 l399 0 0 40 c0 54 -44 384 -81 615 -85 525 -194 853 -312
939 -43 32 -164 30 -232 -3 -152 -75 -297 -308 -412 -664 -60 -188 -69 -202
-160 -247 -172 -86 -429 -58 -695 76 -366 184 -728 432 -914 626 -178 185
-255 351 -241 519 6 76 62 233 156 437 84 182 104 244 105 322 0 48 -5 76 -21
105 -48 92 -174 172 -338 216 -115 31 -320 35 -431 9z m1356 -2861 c95 -11
264 -22 400 -25 224 -6 237 -7 277 -30 45 -26 85 -72 103 -118 10 -28 29 -227
71 -771 l21 -281 -22 -52 c-39 -91 -120 -142 -224 -142 -35 0 -67 11 -139 49
-427 221 -749 618 -866 1066 -18 68 -20 88 -11 132 18 85 74 149 158 179 47
17 38 17 232 -7z"/>
<path d="M4018 12299 c-46 -18 -127 -163 -156 -282 -11 -45 -32 -95 -57 -132
-97 -149 -109 -287 -37 -430 137 -274 888 -1262 1337 -1758 131 -146 180 -173
261 -147 36 12 37 12 83 -34 34 -34 43 -50 36 -60 -38 -52 -47 -68 -52 -99
-13 -82 25 -154 102 -188 54 -25 82 -24 145 8 l53 27 53 -60 c30 -32 54 -63
54 -67 0 -5 -12 -24 -26 -42 -53 -70 -37 -179 33 -232 27 -21 49 -28 97 -31
53 -3 66 0 99 22 21 14 41 26 45 26 4 0 36 -29 71 -64 l64 -65 -31 -35 c-50
-57 -54 -134 -12 -204 29 -48 75 -72 138 -72 59 0 83 9 125 48 l27 26 64 -63
64 -64 -25 -39 c-53 -80 -36 -186 39 -240 27 -18 46 -23 99 -23 61 0 71 3 109
33 l41 34 62 -53 c34 -29 68 -58 75 -64 10 -9 6 -22 -24 -66 -33 -50 -36 -58
-32 -114 5 -74 33 -119 92 -146 78 -35 155 -15 214 56 l29 37 97 -78 c95 -75
96 -77 81 -100 -8 -13 -21 -34 -29 -46 -76 -121 36 -278 181 -255 46 8 77 29
112 77 l29 40 78 -56 c44 -31 83 -60 88 -65 5 -5 -2 -33 -17 -67 -43 -95 -32
-159 36 -219 79 -69 205 -49 258 42 12 19 25 35 30 35 5 0 51 -27 104 -61 l94
-61 -6 -43 c-16 -118 55 -205 166 -205 47 1 116 32 131 60 7 14 18 20 28 17
10 -3 68 -24 130 -46 148 -54 258 -81 611 -152 830 -167 1716 -275 2427 -296
l220 -6 22 28 c12 16 25 39 29 53 8 33 -22 88 -56 101 -14 5 -91 12 -171 16
-922 38 -1744 144 -2673 344 -339 73 -497 138 -806 329 -901 556 -1818 1345
-2721 2342 -53 58 -125 139 -160 180 -36 41 -67 77 -70 80 -11 11 -231 271
-321 380 -342 415 -872 1127 -1071 1440 -119 186 -124 397 -13 571 23 36 35
66 35 91 0 68 -66 112 -132 87z"/>
<path d="M5900 3590 l0 -810 600 0 600 0 0 200 0 200 -365 0 -365 0 0 105 0
105 325 0 325 0 0 195 0 195 -325 0 -325 0 0 110 0 110 365 0 364 0 3 148 c2
81 6 140 10 132 6 -14 209 -664 278 -890 17 -58 44 -145 60 -195 16 -49 52
-163 80 -253 l51 -162 276 2 276 3 109 350 c60 193 152 490 204 660 53 171
116 373 140 451 24 77 44 144 44 147 0 4 -105 7 -232 7 l-233 0 -144 -578
c-164 -658 -161 -645 -166 -640 -4 4 -138 527 -259 1008 l-51 205 -822 3 -823
2 0 -810z"/>
<path d="M8670 3590 l0 -810 384 0 c443 0 514 7 636 67 114 55 231 177 293
305 69 141 89 224 94 403 4 123 1 167 -15 246 -23 109 -72 230 -126 312 -56
84 -163 180 -248 221 -120 58 -192 66 -634 66 l-384 0 0 -810z m776 387 c54
-28 100 -92 129 -180 24 -70 28 -99 29 -202 1 -139 -21 -229 -76 -310 -61 -90
-100 -104 -275 -105 l-113 0 0 411 0 411 138 -4 c103 -3 145 -8 168 -21z"/>
<path d="M5568 2246 c-92 -33 -131 -84 -125 -160 6 -71 48 -106 164 -142 101
-30 113 -38 113 -70 0 -49 -121 -53 -187 -6 l-28 20 -43 -38 -42 -38 37 -31
c67 -55 171 -74 271 -49 56 14 127 80 133 124 12 88 -29 139 -142 173 -111 34
-139 48 -139 70 0 26 28 41 75 41 39 0 91 -22 97 -42 3 -9 21 1 53 26 l48 40
-38 33 c-65 56 -169 77 -247 49z"/>
<path d="M6595 2244 c-125 -44 -199 -195 -161 -326 21 -72 64 -130 123 -165
42 -24 58 -28 128 -28 90 0 122 13 181 72 52 52 77 114 77 193 0 184 -179 314
-348 254z m128 -128 c94 -40 111 -165 32 -235 -42 -37 -83 -40 -130 -11 -108
67 -70 240 58 259 4 0 22 -5 40 -13z"/>
<path d="M7540 2244 c-78 -27 -120 -81 -120 -155 0 -63 51 -109 159 -143 104
-33 121 -42 121 -65 0 -55 -121 -63 -189 -13 l-26 19 -43 -36 -42 -37 28 -27
c39 -37 121 -67 185 -67 135 0 227 67 227 165 0 78 -39 112 -173 154 -88 27
-107 38 -107 61 0 55 134 52 172 -3 3 -6 27 7 53 29 l47 38 -38 33 c-67 58
-167 77 -254 47z"/>
<path d="M8160 2244 c-78 -27 -120 -81 -120 -153 0 -69 63 -123 174 -150 97
-24 131 -58 90 -92 -28 -23 -118 -16 -162 13 l-37 25 -44 -37 -43 -37 39 -32
c141 -117 403 -52 403 101 0 81 -37 115 -173 157 -88 27 -107 38 -107 61 0 55
134 52 172 -3 3 -6 27 7 53 29 l47 38 -36 32 c-40 35 -121 64 -175 64 -20 -1
-56 -8 -81 -16z"/>
<path d="M9055 2236 c-143 -67 -200 -229 -132 -369 97 -196 367 -196 464 1
109 222 -115 471 -332 368z m139 -120 c96 -40 112 -164 30 -236 -47 -41 -91
-41 -139 1 -81 71 -62 199 35 238 34 13 36 13 74 -3z"/>
<path d="M5920 1985 l0 -255 70 0 70 0 0 100 0 100 75 0 75 0 0 -100 0 -100
70 0 70 0 0 255 0 255 -70 0 -70 0 0 -90 0 -90 -75 0 -75 0 0 90 0 90 -70 0
-70 0 0 -255z"/>
<path d="M7012 1988 l3 -253 188 -3 187 -2 0 65 0 65 -115 0 -115 0 0 35 0 35
100 0 100 0 0 60 0 60 -100 0 -100 0 0 35 0 35 115 0 115 0 0 60 0 60 -190 0
-190 0 2 -252z"/>
<path d="M8470 2180 l0 -59 63 -3 62 -3 3 -192 2 -193 70 0 70 0 2 193 3 192
63 3 62 3 0 59 0 60 -200 0 -200 0 0 -60z"/>
<path d="M9482 1988 l3 -253 73 -3 72 -3 0 91 c0 121 15 121 92 0 l57 -90 76
0 c41 0 75 2 75 5 0 3 -29 47 -65 98 l-64 94 25 14 c47 25 69 67 69 136 0 66
-15 97 -69 137 -24 19 -44 21 -187 24 l-159 3 2 -253z m262 110 c19 -31 -4
-53 -63 -56 l-51 -3 0 41 0 41 51 -3 c36 -2 55 -8 63 -20z"/>
<path d="M9970 1985 l0 -255 185 0 185 0 0 65 0 65 -115 0 -115 0 0 35 0 35
105 0 105 0 0 60 0 59 -102 3 -103 3 0 30 0 30 113 3 112 3 0 59 0 60 -185 0
-185 0 0 -255z"/>
</g>
</svg>
